<?xml version="1.0" encoding="UTF-8" standalone="no"?>
<svg
   xmlns:dc="http://purl.org/dc/elements/1.1/"
   xmlns:cc="http://creativecommons.org/ns#"
   xmlns:rdf="http://www.w3.org/1999/02/22-rdf-syntax-ns#"
   xmlns:svg="http://www.w3.org/2000/svg"
   xmlns="http://www.w3.org/2000/svg"
   xmlns:sodipodi="http://sodipodi.sourceforge.net/DTD/sodipodi-0.dtd"
   xmlns:inkscape="http://www.inkscape.org/namespaces/inkscape"
   width="133pt"
   height="121pt"
   viewBox="0 0 133 121"
   version="1.1"
   id="svg2"
   inkscape:version="0.48.2 r9819"
   sodipodi:docname="low.svg"
   inkscape:export-filename="C:\Users\dnewell\Documents\GitHub\geis-wallpaper\py2\ico\wx\tropical\xsmall\low.png"
   inkscape:export-xdpi="90"
   inkscape:export-ydpi="90">
  <metadata
     id="metadata12">
    <rdf:RDF>
      <cc:Work
         rdf:about="">
        <dc:format>image/svg+xml</dc:format>
        <dc:type
           rdf:resource="http://purl.org/dc/dcmitype/StillImage" />
        <dc:title></dc:title>
      </cc:Work>
    </rdf:RDF>
  </metadata>
  <defs
     id="defs10" />
  <sodipodi:namedview
     pagecolor="#ffffff"
     bordercolor="#666666"
     borderopacity="1"
     objecttolerance="10"
     gridtolerance="10"
     guidetolerance="10"
     inkscape:pageopacity="0"
     inkscape:pageshadow="2"
     inkscape:window-width="1366"
     inkscape:window-height="706"
     id="namedview8"
     showgrid="false"
     inkscape:zoom="3.1206612"
     inkscape:cx="-100.48993"
     inkscape:cy="75.625"
     inkscape:window-x="-8"
     inkscape:window-y="-8"
     inkscape:window-maximized="1"
     inkscape:current-layer="svg2" />
  <path
     d="m 68.329375,54.778303 c 1.2495,-0.8775 2.83875,-1.209 4.344,-1.023 0.51075,0.08775 1.04775,0.15 1.50225,0.42 -0.37575,0.0285 -0.753,-0.003 -1.12875,0.0285 -0.8595,0.0885 -1.704,0.372 -2.4165,0.86475 0.4425,0.15675 0.8895,0.32925 1.26075,0.62475 0.76725,0.57075 1.22475,1.557 1.09725,2.51325 -0.1395,0.942 -0.65625,1.797 -1.34625,2.4405 -1.70724,1.372405 -2.787241,1.491496 -4.38525,1.46325 -0.91397,-0.04357 -1.38,-0.2265 -2.0025,-0.53925 0.342,-0.01125 0.68325,0.06825 1.0245,0.009 0.93225,-0.01725 1.83825,-0.34725 2.60325,-0.8715 -0.98475,-0.2775 -1.91325,-0.97575 -2.22375,-1.9815 -0.159,-0.39975 -0.12225,-0.8385 -0.10575,-1.2585 0.17925,-1.09575 0.86775,-2.0685 1.77675,-2.69025 z"
     id="path6"
     inkscape:connector-curvature="0"
     style="fill:#0083ff;fill-opacity:1"
     sodipodi:nodetypes="ccccccccccccccc" />
  <text
     xml:space="preserve"
     style="font-size:4.31999969px;font-style:normal;font-variant:normal;font-weight:normal;font-stretch:normal;line-height:125%;letter-spacing:0px;word-spacing:0px;fill:#ffffff;fill-opacity:0.94117647;stroke:none;font-family:Cambria;-inkscape-font-specification:Cambria"
     x="68.663208"
     y="59.199726"
     id="text3767"
     sodipodi:linespacing="125%"><tspan
       sodipodi:role="line"
       id="tspan3769"
       x="68.663208"
       y="59.199726"
       style="font-style:normal;font-variant:normal;font-weight:normal;font-stretch:normal;font-family:Berlin Sans FB;-inkscape-font-specification:Berlin Sans FB">L</tspan></text>
</svg>
