<?xml version="1.0" encoding="UTF-8" standalone="no"?>
<svg
   xmlns:dc="http://purl.org/dc/elements/1.1/"
   xmlns:cc="http://creativecommons.org/ns#"
   xmlns:rdf="http://www.w3.org/1999/02/22-rdf-syntax-ns#"
   xmlns:svg="http://www.w3.org/2000/svg"
   xmlns="http://www.w3.org/2000/svg"
   xmlns:sodipodi="http://sodipodi.sourceforge.net/DTD/sodipodi-0.dtd"
   xmlns:inkscape="http://www.inkscape.org/namespaces/inkscape"
   width="133pt"
   height="121pt"
   viewBox="0 0 133 121"
   version="1.1"
   id="svg2"
   inkscape:version="0.48.2 r9819"
   sodipodi:docname="extratropical.svg"
   inkscape:export-filename="C:\Users\dnewell\Documents\GitHub\geis-wallpaper\py2\ico\wx\tropical\extratropical.png"
   inkscape:export-xdpi="90"
   inkscape:export-ydpi="90">
  <metadata
     id="metadata12">
    <rdf:RDF>
      <cc:Work
         rdf:about="">
        <dc:format>image/svg+xml</dc:format>
        <dc:type
           rdf:resource="http://purl.org/dc/dcmitype/StillImage" />
        <dc:title></dc:title>
      </cc:Work>
    </rdf:RDF>
  </metadata>
  <defs
     id="defs10" />
  <sodipodi:namedview
     pagecolor="#ffffff"
     bordercolor="#666666"
     borderopacity="1"
     objecttolerance="10"
     gridtolerance="10"
     guidetolerance="10"
     inkscape:pageopacity="0"
     inkscape:pageshadow="2"
     inkscape:window-width="1366"
     inkscape:window-height="706"
     id="namedview8"
     showgrid="false"
     inkscape:zoom="3.1206612"
     inkscape:cx="74.854816"
     inkscape:cy="75.625"
     inkscape:window-x="-8"
     inkscape:window-y="-8"
     inkscape:window-maximized="1"
     inkscape:current-layer="svg2" />
  <path
     d="M 51.24,16.16 C 67.9,4.46 89.09,0.04 109.16,2.52 c 6.81,1.17 13.97,2 20.03,5.6 -5.01,0.38 -10.04,-0.04 -15.05,0.38 -11.46,1.18 -22.72,4.96 -32.22,11.53 5.9,2.09 11.86,4.39 16.81,8.33 10.23,7.61 16.33,20.76 14.63,33.51 -1.86,12.56 -8.75,23.96 -17.95,32.54 -22.763203,18.29874 -37.163214,19.88661 -58.47,19.51 -12.186271,-0.58093 -18.4,-3.02 -26.7,-7.19 4.56,-0.15 9.11,0.91 13.66,0.12 12.43,-0.23 24.51,-4.63 34.71,-11.62 C 45.48,91.53 33.1,82.22 28.96,68.81 26.84,63.48 27.33,57.63 27.55,52.03 29.94,37.42 39.12,24.45 51.24,16.16 z"
     id="path6"
     inkscape:connector-curvature="0"
     style="fill:#ffffff;fill-opacity:1;stroke:#000000;stroke-opacity:1"
     sodipodi:nodetypes="ccccccccccccccc" />
  <text
     xml:space="preserve"
     style="font-size:57.59999847px;font-style:normal;font-variant:normal;font-weight:normal;font-stretch:normal;text-align:center;line-height:125%;letter-spacing:0px;word-spacing:0px;text-anchor:middle;fill:#ffffff;fill-opacity:0.94117647;stroke:none;font-family:Berlin Sans FB;-inkscape-font-specification:Berlin Sans FB"
     x="70.576721"
     y="77.419487"
     id="text3767"
     sodipodi:linespacing="125%"><tspan
       sodipodi:role="line"
       id="tspan3769"
       x="70.576721"
       y="77.419487"
       style="fill:#000000">E</tspan></text>
</svg>
