<?xml version="1.0" encoding="UTF-8" standalone="no"?>
<svg
   xmlns:dc="http://purl.org/dc/elements/1.1/"
   xmlns:cc="http://creativecommons.org/ns#"
   xmlns:rdf="http://www.w3.org/1999/02/22-rdf-syntax-ns#"
   xmlns:svg="http://www.w3.org/2000/svg"
   xmlns="http://www.w3.org/2000/svg"
   xmlns:sodipodi="http://sodipodi.sourceforge.net/DTD/sodipodi-0.dtd"
   xmlns:inkscape="http://www.inkscape.org/namespaces/inkscape"
   width="133pt"
   height="121pt"
   viewBox="0 0 133 121"
   version="1.1"
   id="svg2"
   inkscape:version="0.48.2 r9819"
   sodipodi:docname="extratropical_small.svg"
   inkscape:export-filename="C:\Users\dnewell\Documents\GitHub\geis-wallpaper\py2\ico\wx\tropical\extratropical_small.png"
   inkscape:export-xdpi="90"
   inkscape:export-ydpi="90">
  <metadata
     id="metadata12">
    <rdf:RDF>
      <cc:Work
         rdf:about="">
        <dc:format>image/svg+xml</dc:format>
        <dc:type
           rdf:resource="http://purl.org/dc/dcmitype/StillImage" />
        <dc:title></dc:title>
      </cc:Work>
    </rdf:RDF>
  </metadata>
  <defs
     id="defs10" />
  <sodipodi:namedview
     pagecolor="#ffffff"
     bordercolor="#666666"
     borderopacity="1"
     objecttolerance="10"
     gridtolerance="10"
     guidetolerance="10"
     inkscape:pageopacity="0"
     inkscape:pageshadow="2"
     inkscape:window-width="1366"
     inkscape:window-height="706"
     id="namedview8"
     showgrid="false"
     inkscape:zoom="3.1206612"
     inkscape:cx="-31.532894"
     inkscape:cy="75.625"
     inkscape:window-x="-8"
     inkscape:window-y="-8"
     inkscape:window-maximized="1"
     inkscape:current-layer="svg2" />
  <path
     d="m 66.94375,51.647089 c 2.499,-1.755 5.6775,-2.418 8.688,-2.046 1.0215,0.1755 2.0955,0.3 3.0045,0.84 -0.7515,0.057 -1.506,-0.006 -2.2575,0.057 -1.719,0.177 -3.408,0.744 -4.833,1.7295 0.885,0.3135 1.779,0.6585 2.5215,1.2495 1.5345,1.1415 2.4495,3.114 2.1945,5.0265 -0.279,1.884 -1.3125,3.594 -2.6925,4.881 -3.41448,2.744811 -5.574482,2.982992 -8.7705,2.9265 -1.82794,-0.08714 -2.76,-0.453 -4.005,-1.0785 0.684,-0.0225 1.3665,0.1365 2.049,0.018 1.8645,-0.0345 3.6765,-0.6945 5.2065,-1.743 -1.9695,-0.555 -3.8265,-1.9515 -4.4475,-3.963 -0.318,-0.7995 -0.2445,-1.677 -0.2115,-2.517 0.3585,-2.1915 1.7355,-4.137 3.5535,-5.3805 z"
     id="path6"
     inkscape:connector-curvature="0"
     style="fill:#ffffff;fill-opacity:1;stroke:#000000;stroke-width:0.15000001;stroke-opacity:1"
     sodipodi:nodetypes="ccccccccccccccc" />
  <text
     xml:space="preserve"
     style="font-size:8.63999939px;font-style:normal;font-variant:normal;font-weight:normal;font-stretch:normal;text-align:center;line-height:125%;letter-spacing:0px;word-spacing:0px;text-anchor:middle;fill:#ffffff;fill-opacity:0.94117647;stroke:none;font-family:Berlin Sans FB;-inkscape-font-specification:Berlin Sans FB"
     x="69.844261"
     y="60.836014"
     id="text3767"
     sodipodi:linespacing="125%"><tspan
       sodipodi:role="line"
       id="tspan3769"
       x="69.844261"
       y="60.836014"
       style="fill:#000000">E</tspan></text>
</svg>
